<svg width="14" height="17" viewBox="0 0 14 17" fill="none" xmlns="http://www.w3.org/2000/svg">
<path d="M11.1665 2.54167H10.1248V1.5C10.1248 1.33424 10.059 1.17527 9.94178 1.05806C9.82457 0.940848 9.6656 0.875 9.49984 0.875C9.33408 0.875 9.17511 0.940848 9.0579 1.05806C8.94069 1.17527 8.87484 1.33424 8.87484 1.5V2.54167H5.12484V1.5C5.12484 1.33424 5.05899 1.17527 4.94178 1.05806C4.82457 0.940848 4.6656 0.875 4.49984 0.875C4.33408 0.875 4.17511 0.940848 4.0579 1.05806C3.94069 1.17527 3.87484 1.33424 3.87484 1.5V2.54167H2.83317C2.22538 2.54167 1.64249 2.78311 1.21272 3.21288C0.782947 3.64265 0.541504 4.22555 0.541504 4.83333V14C0.541504 14.6078 0.782947 15.1907 1.21272 15.6205C1.64249 16.0502 2.22538 16.2917 2.83317 16.2917H11.1665C11.7743 16.2917 12.3572 16.0502 12.787 15.6205C13.2167 15.1907 13.4582 14.6078 13.4582 14V4.83333C13.4582 4.22555 13.2167 3.64265 12.787 3.21288C12.3572 2.78311 11.7743 2.54167 11.1665 2.54167ZM2.83317 3.79167H3.87484V4.83333C3.87484 4.99909 3.94069 5.15806 4.0579 5.27528C4.17511 5.39249 4.33408 5.45833 4.49984 5.45833C4.6656 5.45833 4.82457 5.39249 4.94178 5.27528C5.05899 5.15806 5.12484 4.99909 5.12484 4.83333V3.79167H8.87484V4.83333C8.87484 4.99909 8.94069 5.15806 9.0579 5.27528C9.17511 5.39249 9.33408 5.45833 9.49984 5.45833C9.6656 5.45833 9.82457 5.39249 9.94178 5.27528C10.059 5.15806 10.1248 4.99909 10.1248 4.83333V3.79167H11.1665C11.4428 3.79167 11.7077 3.90141 11.9031 4.09676C12.0984 4.29211 12.2082 4.55707 12.2082 4.83333V7.125H1.7915V4.83333C1.7915 4.55707 1.90125 4.29211 2.0966 4.09676C2.29195 3.90141 2.5569 3.79167 2.83317 3.79167V3.79167ZM11.1665 15.0417H2.83317C2.5569 15.0417 2.29195 14.9319 2.0966 14.7366C1.90125 14.5412 1.7915 14.2763 1.7915 14V8.375H12.2082V14C12.2082 14.2763 12.0984 14.5412 11.9031 14.7366C11.7077 14.9319 11.4428 15.0417 11.1665 15.0417Z" fill="#12110F"/>
</svg>
