<svg width="32" height="33" viewBox="0 0 32 33" fill="none" xmlns="http://www.w3.org/2000/svg">
<path fill-rule="evenodd" clip-rule="evenodd" d="M18.4661 21.1859C18.9944 21.0701 19.6268 20.9323 20.4209 20.7798C21.6724 20.5395 22.6792 21.3207 23.4027 22.4035C24.3799 23.866 24.8425 25.8395 24.8425 25.8395C24.8705 25.9594 24.8412 26.0853 24.7629 26.1815C24.6846 26.2776 24.5659 26.3337 24.4403 26.3337H7.55835C7.43045 26.3337 7.30978 26.2756 7.23165 26.1763C7.15357 26.0771 7.12685 25.9481 7.15934 25.8269C7.15934 25.8269 7.69568 23.8348 8.68461 22.3723C9.42476 21.2776 10.4279 20.5096 11.5945 20.7834C12.3372 20.9577 12.9738 21.0995 13.5284 21.2118L13.8976 18.9246C12.8417 18.3141 11.9789 17.2291 11.474 15.7615C11.4014 15.5501 11.5175 15.3207 11.7333 15.2495C11.9491 15.1783 12.1833 15.2921 12.256 15.5035C12.9359 17.4801 14.3429 18.6832 15.9993 18.6832C17.6609 18.6832 19.0714 17.4728 19.7489 15.4852C19.8211 15.2737 20.0549 15.1593 20.2709 15.2299C20.4869 15.3005 20.6037 15.5296 20.5316 15.7412C20.0278 17.2191 19.1619 18.3113 18.1011 18.9246L18.4661 21.1859ZM14.3391 21.3648C15.013 21.4811 15.5471 21.5409 16.0099 21.5525C16.5285 21.5654 17.0123 21.4925 17.6588 21.3596L17.3226 19.2767C16.8999 19.4182 16.4561 19.4913 15.9993 19.4913C15.5426 19.4913 15.0988 19.4182 14.6761 19.2767L14.3391 21.3648ZM23.9034 25.5255C23.7142 24.8901 23.3228 23.7598 22.7123 22.846C22.1827 22.0533 21.4958 21.3969 20.5797 21.5729C18.0408 22.0604 17.0885 22.3878 15.9888 22.3603C14.9914 22.3354 13.6739 22.1023 11.4023 21.5693C10.5628 21.3723 9.90514 22.0308 9.37257 22.8185C8.75181 23.7365 8.32428 24.8795 8.11197 25.5255H23.9034ZM20.9922 13.2506C20.9806 13.4733 20.7865 13.6449 20.5591 13.6335C20.3317 13.6221 20.1565 13.432 20.1681 13.2093C20.1774 13.0319 20.1822 12.8511 20.1822 12.6671C20.1822 10.8785 19.7707 9.81586 19.0322 9.21232C18.2928 8.60813 17.257 8.47514 16.096 8.47514C14.9282 8.47514 13.8424 8.61172 13.0541 9.21955C12.2731 9.82177 11.8165 10.8824 11.8165 12.6671C11.8165 12.8509 11.8212 13.0315 11.8305 13.2088C11.8422 13.4315 11.667 13.6215 11.4395 13.6329C11.2122 13.6444 11.0181 13.4728 11.0064 13.25C10.9965 13.0593 10.9914 12.865 10.9914 12.6671C10.9914 10.5396 11.6127 9.30243 12.5437 8.58459C13.4674 7.87236 14.7277 7.66699 16.096 7.66699C17.4715 7.66699 18.6849 7.87595 19.5608 8.59182C20.4377 9.30839 21.0073 10.5434 21.0073 12.6671C21.0073 12.8652 21.0022 13.0597 20.9922 13.2506ZM7.07858 14.7947C6.8509 14.7947 6.66602 14.6136 6.66602 14.3906C6.66602 14.1676 6.8509 13.9865 7.07858 13.9865H24.9201C25.1478 13.9865 25.3327 14.1676 25.3327 14.3906C25.3327 14.6136 25.1478 14.7947 24.9201 14.7947H7.07858Z" fill="black" stroke="black" stroke-width="0.1"/>
<path d="M8 1C8.49092 1 8.88889 1.39797 8.88889 1.88889C8.88889 2.3798 8.49092 2.77778 8 2.77778H4.44444C2.97168 2.77778 1.77778 3.97168 1.77778 5.44444L1.77778 9.05534C1.77778 9.54626 1.3798 9.94423 0.888889 9.94423C0.397973 9.94423 -1.5516e-09 9.54626 -1.46247e-09 9.05534L-8.06904e-10 5.44444C-3.61264e-10 2.98985 1.98985 1 4.44444 1H8ZM24 2.77778C23.5092 2.77778 23.1111 2.3798 23.1111 1.88889C23.1111 1.39797 23.5092 1 24 1H27.5556C30.0101 1 32 2.98985 32 5.44444L32 9C32 9.49092 31.602 9.88889 31.1111 9.88889C30.6203 9.88889 30.2222 9.49092 30.2222 9L30.2222 5.44444C30.2222 3.97168 29.0283 2.77778 27.5556 2.77778H24ZM30.2222 25C30.2222 24.5092 30.6203 24.1111 31.1111 24.1111C31.602 24.1111 32 24.5092 32 25L32 28.5556C32 31.0101 30.0101 33 27.5556 33H24C23.5092 33 23.1111 32.602 23.1111 32.1111C23.1111 31.6203 23.5092 31.2222 24 31.2222H27.5556C29.0283 31.2222 30.2222 30.0283 30.2222 28.5556L30.2222 25ZM-4.35728e-09 25C-4.26817e-09 24.5092 0.397973 24.1111 0.888889 24.1111C1.3798 24.1111 1.77778 24.5092 1.77778 25L1.77778 28.5556C1.77778 30.0283 2.97168 31.2222 4.44444 31.2222H8C8.49092 31.2222 8.88889 31.6203 8.88889 32.1111C8.88889 32.602 8.49092 33 8 33H4.44444C1.98985 33 -5.44844e-09 31.0101 -5.0028e-09 28.5556L-4.35728e-09 25Z" fill="black" stroke="white" stroke-width="0.2"/>
</svg>
