<svg width="28" height="28" viewBox="0 0 28 28" fill="none" xmlns="http://www.w3.org/2000/svg">
<mask id="mask0_948_450" style="mask-type:luminance" maskUnits="userSpaceOnUse" x="0" y="0" width="28" height="28">
<path d="M0 0H28V28H0V0Z" fill="white"/>
</mask>
<g mask="url(#mask0_948_450)">
<path d="M2.51562 10.9178C2.82919 9.52133 3.73132 6.77014 6.54512 3.88819" stroke="#12110F" stroke-width="1.2" stroke-miterlimit="10" stroke-linecap="round" stroke-linejoin="round"/>
<path d="M6.65785 23.6448C3.93036 21.294 2.1958 17.763 2.1958 13.8151C2.1958 13.6651 2.19832 13.5157 2.20326 13.3671" stroke="#12110F" stroke-width="1.2" stroke-miterlimit="10" stroke-linecap="round" stroke-linejoin="round"/>
<path d="M20.6806 25.0277C18.8933 26.0487 16.8361 26.6301 14.6471 26.6301C12.4654 26.6301 10.4149 26.0527 8.63184 25.0381" stroke="#12110F" stroke-width="1.2" stroke-miterlimit="10" stroke-linecap="round" stroke-linejoin="round"/>
<path d="M25.2053 7.01847C26.405 8.9885 27.0986 11.3183 27.0986 13.8149C27.0986 17.7571 25.3691 21.2835 22.6484 23.6343" stroke="#12110F" stroke-width="1.2" stroke-miterlimit="10" stroke-linecap="round" stroke-linejoin="round"/>
<path d="M22.4478 3.82594C22.9085 4.20761 23.3424 4.62241 23.7459 5.06674" stroke="#12110F" stroke-width="1.2" stroke-miterlimit="10" stroke-linecap="round" stroke-linejoin="round"/>
<path d="M8.70947 2.5481C10.4743 1.56085 12.497 1.00002 14.6469 1.00002C16.7417 1.00002 18.7156 1.53245 20.448 2.47296" stroke="#12110F" stroke-width="1.2" stroke-miterlimit="10" stroke-linecap="round" stroke-linejoin="round"/>
<path d="M15.6899 5.47983C17.0923 4.58595 18.6372 3.8834 20.2974 3.41443" stroke="#12110F" stroke-width="1.2" stroke-miterlimit="10" stroke-linecap="round" stroke-linejoin="round"/>
<path d="M10.5884 10.4213C11.4855 9.11732 12.5497 7.93365 13.7572 6.90746" stroke="#12110F" stroke-width="1.2" stroke-miterlimit="10" stroke-linecap="round" stroke-linejoin="round"/>
<path d="M7.47403 23.1099C7.02582 19.3567 7.73445 15.6933 9.33515 12.5319" stroke="#12110F" stroke-width="1.2" stroke-miterlimit="10" stroke-linecap="round" stroke-linejoin="round"/>
<path d="M13.6044 5.47983C12.1546 4.55572 10.5525 3.83612 8.82812 3.36764" stroke="#12110F" stroke-width="1.2" stroke-miterlimit="10" stroke-linecap="round" stroke-linejoin="round"/>
<path d="M20.4179 13.5074C19.3103 10.9608 17.6415 8.69524 15.5381 6.90759" stroke="#12110F" stroke-width="1.2" stroke-miterlimit="10" stroke-linecap="round" stroke-linejoin="round"/>
<path d="M21.8645 22.6996C22.1771 19.5791 21.4708 16.5312 21.2446 15.7365" stroke="#12110F" stroke-width="1.2" stroke-miterlimit="10" stroke-linecap="round" stroke-linejoin="round"/>
<path d="M21.8135 23.171C21.9176 22.3213 21.9639 21.4644 21.951 20.6081" stroke="#12110F" stroke-width="1.2" stroke-miterlimit="10" stroke-linecap="round" stroke-linejoin="round"/>
<path d="M8.78951 11.2199C6.99583 11.2105 5.1751 11.4077 3.35547 11.8282" stroke="#12110F" stroke-width="1.2" stroke-miterlimit="10" stroke-linecap="round" stroke-linejoin="round"/>
<path d="M19.8321 14.0439C17.1618 12.6101 14.2279 11.6846 11.1758 11.3547" stroke="#12110F" stroke-width="1.2" stroke-miterlimit="10" stroke-linecap="round" stroke-linejoin="round"/>
<path d="M26.0937 18.8669C24.8259 17.5111 23.4168 16.3122 21.8979 15.2895" stroke="#12110F" stroke-width="1.2" stroke-miterlimit="10" stroke-linecap="round" stroke-linejoin="round"/>
<path d="M21.4756 13.5779C22.6501 11.6414 23.5762 9.51935 24.2033 7.2543" stroke="#12110F" stroke-width="1.2" stroke-miterlimit="10" stroke-linecap="round" stroke-linejoin="round"/>
<path d="M8.79004 23.9592C13.2915 22.3692 17.2306 19.4416 20.1138 15.5936" stroke="#12110F" stroke-width="1.2" stroke-miterlimit="10" stroke-linecap="round" stroke-linejoin="round"/>
<path d="M14.6471 7.31693C13.9868 7.31693 13.4497 6.76411 13.4497 6.08452C13.4497 5.40498 13.9868 4.85217 14.6471 4.85217C15.3074 4.85217 15.8445 5.40498 15.8445 6.08452C15.8445 6.76411 15.3074 7.31693 14.6471 7.31693Z" stroke="#12110F" stroke-width="1.2" stroke-miterlimit="10" stroke-linecap="round" stroke-linejoin="round"/>
<path d="M9.98742 12.7317C9.32716 12.7317 8.79004 12.1788 8.79004 11.4993C8.79004 10.8197 9.32716 10.2669 9.98742 10.2669C10.6477 10.2669 11.1848 10.8197 11.1848 11.4993C11.1848 12.1788 10.6477 12.7317 9.98742 12.7317Z" stroke="#12110F" stroke-width="1.2" stroke-miterlimit="10" stroke-linecap="round" stroke-linejoin="round"/>
<path d="M20.8776 15.8772C20.2173 15.8772 19.6802 15.3244 19.6802 14.6448C19.6802 13.9653 20.2173 13.4124 20.8776 13.4124C21.5378 13.4124 22.0749 13.9653 22.0749 14.6448C22.0749 15.3244 21.5378 15.8772 20.8776 15.8772Z" stroke="#12110F" stroke-width="1.2" stroke-miterlimit="10" stroke-linecap="round" stroke-linejoin="round"/>
<path d="M7.65344 25.5611C6.99317 25.5611 6.45605 25.0083 6.45605 24.3287C6.45605 23.6492 6.99317 23.0963 7.65344 23.0963C8.3137 23.0963 8.85087 23.6492 8.85087 24.3287C8.85087 25.0083 8.3137 25.5611 7.65344 25.5611Z" stroke="#12110F" stroke-width="1.2" stroke-miterlimit="10" stroke-linecap="round" stroke-linejoin="round"/>
<path d="M21.7101 25.6311C21.0498 25.6311 20.5127 25.0783 20.5127 24.3987C20.5127 23.7192 21.0498 23.1663 21.7101 23.1663C22.3703 23.1663 22.9075 23.7192 22.9075 24.3987C22.9075 25.0783 22.3703 25.6311 21.7101 25.6311Z" stroke="#12110F" stroke-width="1.2" stroke-miterlimit="10" stroke-linecap="round" stroke-linejoin="round"/>
<path d="M24.5007 7.25461C23.8404 7.25461 23.3032 6.70174 23.3032 6.0222C23.3032 5.34266 23.8404 4.78979 24.5007 4.78979C25.1609 4.78979 25.698 5.34266 25.698 6.0222C25.698 6.70174 25.1609 7.25461 24.5007 7.25461Z" stroke="#12110F" stroke-width="1.2" stroke-miterlimit="10" stroke-linecap="round" stroke-linejoin="round"/>
<path d="M21.4615 4.36023C20.8013 4.36023 20.2642 3.80741 20.2642 3.12782C20.2642 2.44829 20.8013 1.89547 21.4615 1.89547C22.1218 1.89547 22.659 2.44829 22.659 3.12782C22.659 3.80741 22.1218 4.36023 21.4615 4.36023Z" stroke="#12110F" stroke-width="1.2" stroke-miterlimit="10" stroke-linecap="round" stroke-linejoin="round"/>
<path d="M7.65344 4.36023C6.99317 4.36023 6.45605 3.80741 6.45605 3.12782C6.45605 2.44829 6.99317 1.89547 7.65344 1.89547C8.3137 1.89547 8.85087 2.44829 8.85087 3.12782C8.85087 3.80741 8.3137 4.36023 7.65344 4.36023Z" stroke="#12110F" stroke-width="1.2" stroke-miterlimit="10" stroke-linecap="round" stroke-linejoin="round"/>
<path d="M2.19738 13.3667C1.53712 13.3667 1 12.8139 1 12.1343C1 11.4547 1.53712 10.9019 2.19738 10.9019C2.85765 10.9019 3.39477 11.4547 3.39477 12.1343C3.39477 12.8139 2.85765 13.3667 2.19738 13.3667Z" stroke="#12110F" stroke-width="1.2" stroke-miterlimit="10" stroke-linecap="round" stroke-linejoin="round"/>
</g>
</svg>
