<svg width="32" height="33" viewBox="0 0 32 33" fill="none" xmlns="http://www.w3.org/2000/svg">
<g clip-path="url(#clip0_1176_8846)">
<rect x="0.25" y="0.75" width="21.2143" height="31.5" rx="1.75" stroke="black" stroke-width="2"/>
<path d="M8.36141 5.56004C8.36141 6.45932 7.63291 7.19161 6.73362 7.19161C5.83434 7.19161 5.10205 6.45925 5.10205 5.56004C5.10205 4.66082 5.83434 3.92847 6.73362 3.92847C7.63291 3.92847 8.36141 4.66075 8.36141 5.56004Z" fill="black"/>
<path d="M10.0346 10.9632C10.0346 11.0922 9.96628 11.2136 9.85621 11.2857C8.82035 11.9459 7.77693 12.2722 6.72971 12.2722C5.68628 12.2722 4.64285 11.9459 3.60321 11.2857C3.49321 11.2136 3.42871 11.0922 3.42871 10.9632C3.42871 9.14189 4.91228 7.66211 6.73357 7.66211C8.551 7.66218 10.0346 9.14189 10.0346 10.9632Z" fill="black"/>
<path d="M18.1437 6.74805H12.7906C12.5808 6.74805 12.4111 6.91776 12.4111 7.12748C12.4111 7.33719 12.5808 7.5069 12.7906 7.5069H18.1437C18.3534 7.5069 18.5231 7.33719 18.5231 7.12748C18.5231 6.91776 18.3534 6.74805 18.1437 6.74805Z" fill="black"/>
<path d="M15.9842 9.45539C16.1939 9.45539 16.3636 9.28568 16.3636 9.07596C16.3636 8.86625 16.1939 8.69653 15.9842 8.69653H12.7906C12.5808 8.69653 12.4111 8.86625 12.4111 9.07596C12.4111 9.28568 12.5808 9.45539 12.7906 9.45539H15.9842Z" fill="black"/>
<path d="M18.1434 14.8352H8.87699C8.66742 14.8352 8.49756 15.0049 8.49756 15.2146C8.49756 15.4243 8.66742 15.5941 8.87699 15.5941H18.1434C18.3531 15.5941 18.5228 15.4243 18.5228 15.2146C18.5228 15.0049 18.3531 14.8352 18.1434 14.8352Z" fill="black"/>
<path d="M4.85621 14.8352H3.80814C3.59857 14.8352 3.42871 15.0049 3.42871 15.2146C3.42871 15.4243 3.59857 15.5941 3.80814 15.5941H4.85621C5.06578 15.5941 5.23564 15.4243 5.23564 15.2146C5.23564 15.0049 5.06571 14.8352 4.85621 14.8352Z" fill="black"/>
<path d="M18.1434 18.0181H8.87699C8.66742 18.0181 8.49756 18.1878 8.49756 18.3975C8.49756 18.6072 8.66742 18.7769 8.87699 18.7769H18.1434C18.3531 18.7769 18.5228 18.6072 18.5228 18.3975C18.5228 18.1878 18.3531 18.0181 18.1434 18.0181Z" fill="black"/>
<path d="M4.85621 18.0181H3.80814C3.59857 18.0181 3.42871 18.1878 3.42871 18.3975C3.42871 18.6072 3.59857 18.7769 3.80814 18.7769H4.85621C5.06578 18.7769 5.23564 18.6072 5.23564 18.3975C5.23564 18.1878 5.06571 18.0181 4.85621 18.0181Z" fill="black"/>
<path d="M18.1434 21.2014H8.87699C8.66742 21.2014 8.49756 21.3711 8.49756 21.5808C8.49756 21.7906 8.66742 21.9603 8.87699 21.9603H18.1434C18.3531 21.9603 18.5228 21.7906 18.5228 21.5808C18.5228 21.3711 18.3531 21.2014 18.1434 21.2014Z" fill="black"/>
<path d="M4.85621 21.2014H3.80814C3.59857 21.2014 3.42871 21.3711 3.42871 21.5808C3.42871 21.7906 3.59857 21.9603 3.80814 21.9603H4.85621C5.06578 21.9603 5.23564 21.7906 5.23564 21.5808C5.23564 21.3711 5.06571 21.2014 4.85621 21.2014Z" fill="black"/>
<path d="M18.1434 24.3845H8.87699C8.66742 24.3845 8.49756 24.5542 8.49756 24.764C8.49756 24.9737 8.66742 25.1434 8.87699 25.1434H18.1434C18.3531 25.1434 18.5228 24.9737 18.5228 24.764C18.5228 24.5542 18.3531 24.3845 18.1434 24.3845Z" fill="black"/>
<path d="M4.85621 24.3845H3.80814C3.59857 24.3845 3.42871 24.5542 3.42871 24.764C3.42871 24.9737 3.59857 25.1434 3.80814 25.1434H4.85621C5.06578 25.1434 5.23564 24.9737 5.23564 24.764C5.23564 24.5542 5.06571 24.3845 4.85621 24.3845Z" fill="black"/>
<path d="M18.1434 27.5679H8.87699C8.66742 27.5679 8.49756 27.7376 8.49756 27.9473C8.49756 28.157 8.66742 28.3267 8.87699 28.3267H18.1434C18.3531 28.3267 18.5228 28.157 18.5228 27.9473C18.5228 27.7376 18.3531 27.5679 18.1434 27.5679Z" fill="black"/>
<path d="M4.85621 27.5679H3.80814C3.59857 27.5679 3.42871 27.7376 3.42871 27.9473C3.42871 28.157 3.59857 28.3267 3.80814 28.3267H4.85621C5.06578 28.3267 5.23564 28.157 5.23564 27.9473C5.23564 27.7376 5.06571 27.5679 4.85621 27.5679Z" fill="black"/>
</g>
<defs>
<clipPath id="clip0_1176_8846">
<rect width="32" height="32" fill="white" transform="translate(0 0.5)"/>
</clipPath>
</defs>
</svg>
