<svg width="32" height="33" viewBox="0 0 32 33" fill="none" xmlns="http://www.w3.org/2000/svg">
<g clip-path="url(#clip0_1176_8879)">
<path d="M18.182 12.0284C17.9377 11.9397 17.6681 12.0656 17.5792 12.3097L13.5577 23.3688C13.469 23.6129 13.5949 23.8827 13.839 23.9715C13.8921 23.9908 13.9463 24 13.9997 24C14.1918 24 14.3723 23.8813 14.4418 23.6903L18.4633 12.6312C18.552 12.3871 18.4261 12.1172 18.182 12.0284Z" fill="black" stroke="black" stroke-width="0.4"/>
<path d="M12.8244 21.6889L9.13547 17.9999L12.8244 14.3109C13.008 14.1272 13.008 13.8294 12.8244 13.6458C12.6406 13.4621 12.3429 13.4621 12.1592 13.6458L8.13776 17.6674C7.95408 17.8511 7.95408 18.1488 8.13776 18.3325L12.1592 22.354C12.2511 22.4458 12.3714 22.4918 12.4918 22.4918C12.6121 22.4918 12.7326 22.4459 12.8244 22.354C13.0081 22.1703 13.0081 21.8726 12.8244 21.6889Z" fill="black" stroke="black" stroke-width="0.4"/>
<path d="M24.3863 17.6674L20.3647 13.6458C20.181 13.4622 19.8833 13.4621 19.6995 13.6458C19.5158 13.8295 19.5158 14.1273 19.6995 14.3109L23.3885 17.9999L19.6995 21.6889C19.5158 21.8726 19.5158 22.1704 19.6995 22.354C19.7914 22.4458 19.9118 22.4918 20.0321 22.4918C20.1525 22.4918 20.2729 22.4459 20.3647 22.354L24.3863 18.3325C24.5699 18.1488 24.5699 17.851 24.3863 17.6674Z" fill="black" stroke="black" stroke-width="0.4"/>
<path d="M8 1C8.49092 1 8.88889 1.39797 8.88889 1.88889C8.88889 2.3798 8.49092 2.77778 8 2.77778H4.44444C2.97168 2.77778 1.77778 3.97168 1.77778 5.44444L1.77778 9.05534C1.77778 9.54626 1.3798 9.94423 0.888889 9.94423C0.397973 9.94423 -1.5516e-09 9.54626 -1.46247e-09 9.05534L-8.06904e-10 5.44444C-3.61264e-10 2.98985 1.98985 1 4.44444 1H8ZM24 2.77778C23.5092 2.77778 23.1111 2.3798 23.1111 1.88889C23.1111 1.39797 23.5092 1 24 1H27.5556C30.0101 1 32 2.98985 32 5.44444L32 9C32 9.49092 31.602 9.88889 31.1111 9.88889C30.6203 9.88889 30.2222 9.49092 30.2222 9L30.2222 5.44444C30.2222 3.97168 29.0283 2.77778 27.5556 2.77778H24ZM30.2222 25C30.2222 24.5092 30.6203 24.1111 31.1111 24.1111C31.602 24.1111 32 24.5092 32 25L32 28.5556C32 31.0101 30.0101 33 27.5556 33H24C23.5092 33 23.1111 32.602 23.1111 32.1111C23.1111 31.6203 23.5092 31.2222 24 31.2222H27.5556C29.0283 31.2222 30.2222 30.0283 30.2222 28.5556L30.2222 25ZM-4.35728e-09 25C-4.26817e-09 24.5092 0.397973 24.1111 0.888889 24.1111C1.3798 24.1111 1.77778 24.5092 1.77778 25L1.77778 28.5556C1.77778 30.0283 2.97168 31.2222 4.44444 31.2222H8C8.49092 31.2222 8.88889 31.6203 8.88889 32.1111C8.88889 32.602 8.49092 33 8 33H4.44444C1.98985 33 -5.44844e-09 31.0101 -5.0028e-09 28.5556L-4.35728e-09 25Z" fill="black" stroke="white" stroke-width="0.2"/>
</g>
<defs>
<clipPath id="clip0_1176_8879">
<rect width="32" height="32" fill="white" transform="translate(0 0.5)"/>
</clipPath>
</defs>
</svg>
